<svg width="23" height="19" viewBox="0 0 23 19" fill="none" xmlns="http://www.w3.org/2000/svg">
    <path d="M20.7 4.82643C20.7 4.16467 20.6991 3.73727 20.6725 3.4119C20.647 3.09992 20.6038 2.98431 20.5749 2.92772L20.5748 2.92755C20.4653 2.71253 20.2891 2.53625 20.0714 2.42535C20.0144 2.39632 19.8987 2.35302 19.5867 2.32751C19.2611 2.30089 18.8333 2.29998 18.1702 2.29998H4.83021C4.1672 2.29998 3.73895 2.30088 3.41298 2.32751C3.10035 2.35304 2.98444 2.39641 2.92765 2.42535C2.71128 2.53559 2.53559 2.71125 2.42535 2.92762C2.39641 2.98441 2.35304 3.10035 2.32751 3.41298C2.30088 3.73895 2.29998 4.1672 2.29998 4.83021V13.5702C2.29998 14.2333 2.30089 14.6611 2.32751 14.9867C2.35302 15.2987 2.39629 15.4145 2.42531 15.4714C2.53275 15.6823 2.70158 15.8542 2.90751 15.9644L2.92755 15.9748L2.92772 15.9749C2.9843 16.0037 3.09991 16.047 3.4119 16.0725C3.73727 16.0991 4.16467 16.1 4.82643 16.1H18.1736C18.8353 16.1 19.2625 16.0991 19.5876 16.0725C19.8992 16.0471 20.0147 16.0038 20.0714 15.9749C20.2877 15.8647 20.4647 15.6878 20.5749 15.4715C20.6038 15.4148 20.647 15.2992 20.6725 14.9876C20.6991 14.6625 20.7 14.2353 20.7 13.5736V4.82643ZM4.86653 6.16378C5.27313 5.67586 5.99829 5.60995 6.48621 6.01655L9.93621 8.89154C10.1984 9.11003 10.35 9.4337 10.35 9.775C10.35 10.1163 10.1984 10.44 9.93621 10.6585L6.48621 13.5334C5.99829 13.94 5.27313 13.8741 4.86653 13.3862C4.45993 12.8983 4.52588 12.1731 5.01379 11.7665L7.40363 9.775L5.01379 7.78346C4.52588 7.37687 4.45993 6.6517 4.86653 6.16378ZM17.25 11.5C17.8851 11.5 18.4 12.0149 18.4 12.65C18.4 13.2851 17.8851 13.8 17.25 13.8H11.5C10.8649 13.8 10.35 13.2851 10.35 12.65C10.35 12.0149 10.8649 11.5 11.5 11.5H17.25ZM23 13.5736C23 14.1974 23.0009 14.7345 22.9649 15.1751C22.9277 15.6291 22.8457 16.0808 22.6242 16.5155C22.2935 17.1647 21.7648 17.6934 21.1156 18.0241C20.6808 18.2457 20.2292 18.3277 19.7751 18.3649C19.3345 18.4009 18.7974 18.4 18.1736 18.4H4.82643C4.2026 18.4 3.66533 18.4009 3.22454 18.3649C2.77039 18.3277 2.31835 18.2458 1.88342 18.0242C1.23296 17.6928 0.706134 17.1634 0.376066 16.5156C0.154402 16.0806 0.0723058 15.6287 0.0351423 15.1741C-0.000912037 14.7331 2.12503e-06 14.1953 2.13006e-06 13.5702V4.83021C2.11425e-06 4.20512 -0.000904191 3.66704 0.0351423 3.22572C0.0722791 2.77105 0.154286 2.31869 0.376032 1.88349C0.706791 1.23431 1.23431 0.706755 1.88349 0.375999C2.31869 0.154252 2.77105 0.0722791 3.22572 0.0351423C3.66704 -0.000904186 4.20512 2.12045e-06 4.83021 2.13626e-06H18.1702C18.7953 2.13626e-06 19.3331 -0.000913061 19.7741 0.0351423C20.2287 0.0723064 20.6806 0.154368 21.1156 0.376032C21.7634 0.706099 22.2927 1.23296 22.6241 1.88342C22.8458 2.31835 22.9278 2.77039 22.9649 3.22454C23.0009 3.66533 23 4.2026 23 4.82643V13.5736Z"
          fill="#1DE1BA"/>
</svg>
