<svg width="28" height="17" viewBox="0 0 28 17" fill="none" xmlns="http://www.w3.org/2000/svg">
    <path d="M27 0C27.5523 0 28 0.447715 28 1C28 1.55228 27.5523 2 27 2H1C0.447715 2 0 1.55228 0 1C0 0.447715 0.447715 0 1 0H27Z"
          fill="#A4A4A4"/>
    <path d="M27 7.5C27.5523 7.5 28 7.94772 28 8.5C28 9.05228 27.5523 9.5 27 9.5H1C0.447715 9.5 0 9.05228 0 8.5C0 7.94772 0.447715 7.5 1 7.5H27Z"
          fill="#A4A4A4"/>
    <path d="M27 15C27.5523 15 28 15.4477 28 16C28 16.5523 27.5523 17 27 17H1C0.447715 17 0 16.5523 0 16C0 15.4477 0.447715 15 1 15H27Z"
          fill="#A4A4A4"/>
</svg>
